<?xml version="1.0" standalone="no"?><!DOCTYPE svg PUBLIC "-//W3C//DTD SVG 1.1//EN"
        "http://www.w3.org/Graphics/SVG/1.1/DTD/svg11.dtd">
<svg t="1681912815521"
     class="icon"
     viewBox="0 0 1024 1024"
     version="1.1"
     xmlns="http://www.w3.org/2000/svg"
     p-id="8680"
     xmlns:xlink="http://www.w3.org/1999/xlink" width="18" height="18">
    <path d="M433.493333 676.932267c4.369067 39.5264 10.24 75.229867 17.476267 105.608533 13.994667 58.709333 30.173867 95.163733 45.056 95.163733 14.882133 0 31.061333-36.317867 45.056-95.163733 7.304533-30.378667 13.1072-66.082133 17.476267-105.608533-20.411733-9.557333-41.233067-19.933867-62.532267-31.197867-21.2992 11.264-42.120533 21.640533-62.532267 31.197867zM558.557867 367.957333c-4.369067-39.594667-10.24-75.298133-17.476267-105.608533-13.994667-58.709333-30.173867-95.232-45.056-95.232-14.882133 0-31.061333 36.317867-45.056 95.232-7.304533 30.3104-13.1072 66.013867-17.476267 105.608533 20.411733 9.489067 41.233067 19.8656 62.532267 30.993067 21.2992-11.127467 42.120533-21.504 62.532267-30.993067z m-116.3264 60.893867l1.024-0.546133 0.136533-0.2048c4.5056-2.4576 8.874667-5.12 13.380267-7.5776-9.0112-4.573867-18.090667-8.942933-26.965334-13.175467-0.682667 9.762133-1.4336 19.797333-2.048 29.832533 4.778667-2.730667 9.557333-5.393067 14.472534-8.328533z m1.024 187.665067l-1.024-0.6144-0.136534-0.136534-0.341333-0.136533-0.136533-0.136533-0.273067-0.2048h-0.136533L441.002667 615.082667c-4.573867-2.4576-8.874667-5.12-13.312-7.7824 0.6144 10.24 1.160533 20.411733 2.048 30.037333 8.738133-4.232533 17.749333-8.6016 26.965333-13.312a244.394667 244.394667 0 0 1-13.5168-7.509333z m105.540266-188.2112l1.024 0.546133 0.4096 0.273067h0.136534l0.341333 0.341333h0.136533l0.136534 0.136533 13.243733 7.7824a931.84 931.84 0 0 0-2.048-29.9008c-8.874667 4.232533-17.749333 8.6016-26.965333 13.175467 4.573867 2.4576 9.079467 4.983467 13.585066 7.645867zM189.371733 344.8832c-7.236267 12.834133 16.042667 45.2608 59.8016 86.698667 22.596267 21.504 50.449067 44.509867 82.397867 67.925333 18.363733-12.6976 37.751467-25.736533 58.026667-38.775467 1.024-24.1664 2.4576-47.445333 4.5056-69.905066a830.0544 830.0544 0 0 0-99.669334-37.4784c-57.9584-17.271467-97.4848-21.504-105.0624-8.465067z m142.199467 200.362667c-31.9488 23.552-59.8016 46.557867-82.397867 68.061866-43.690667 41.506133-67.037867 73.864533-59.8016 86.698667 7.509333 12.970667 46.967467 8.669867 104.8576-8.6016 29.764267-8.8064 63.556267-21.7088 99.669334-37.546667-1.8432-22.391467-3.2768-45.6704-4.437334-69.8368-20.138667-12.6976-39.594667-25.941333-57.890133-38.775466z m32.085333-22.7328c7.9872 5.597867 16.315733 11.127467 24.7808 16.725333l-0.136533-16.725333 0.136533-16.657067c-8.465067 5.393067-16.7936 11.127467-24.7808 16.657067z"
          fill="#f5f6f9" p-id="8681"></path>
    <path d="M512 0a512 512 0 1 0 0 1024 512 512 0 0 0 0-1024z m273.271467 575.761067c57.070933 53.998933 83.694933 102.263467 66.423466 132.096-17.134933 29.696-72.2944 30.856533-147.592533 8.533333a858.999467 858.999467 0 0 1-93.661867-34.4064 873.198933 873.198933 0 0 1-17.066666 98.167467c-18.158933 76.458667-46.830933 123.767467-81.237334 123.767466-34.338133 0-62.8736-47.240533-81.3056-123.767466-6.894933-28.672-12.629333-61.713067-16.9984-98.167467-33.792 14.472533-65.536 26.0096-93.5936 34.4064-75.3664 22.3232-130.525867 21.2992-147.797333-8.533333-17.066667-29.832533 9.557333-78.097067 66.56-132.096 21.367467-20.343467 47.3088-41.847467 76.663467-63.761067-29.354667-22.1184-55.296-43.6224-76.663467-63.761067-57.002667-53.998933-83.626667-102.263467-66.56-132.096 17.271467-29.696 72.430933-30.856533 147.797333-8.533333 28.194133 8.533333 59.8016 20.0704 93.5936 34.542933a875.178667 875.178667 0 0 1 16.9984-98.167466c18.295467-76.458667 46.967467-123.767467 81.3056-123.767467 34.4064 0 62.941867 47.3088 81.237334 123.767467 6.9632 28.672 12.561067 61.781333 17.066666 98.167466 33.792-14.472533 65.536-26.0096 93.661867-34.542933 75.298133-22.186667 130.4576-21.162667 147.592533 8.533333 17.271467 29.832533-9.352533 78.097067-66.423466 132.096-21.504 20.343467-47.240533 41.642667-76.663467 63.761067 29.2864 21.9136 55.159467 43.4176 76.663467 63.761067z"
          fill="#f5f6f9" p-id="8682"></path>
    <path d="M661.504 522.4448a1209.685333 1209.685333 0 0 0-24.576-16.930133l0.068267 16.930133-0.136534 16.9984c8.3968-5.666133 16.657067-11.4688 24.644267-16.9984z m173.056-180.4288c-7.236267-13.1072-46.557867-8.8064-104.0384 8.6016-29.559467 8.874667-63.214933 21.845333-99.191467 38.0928 2.048 22.7328 3.413333 46.421333 4.369067 70.997333 20.2752 13.038933 39.594667 26.282667 57.821867 39.389867 31.744-23.825067 59.392-47.3088 81.92-69.0176 43.349333-42.257067 66.491733-74.9568 59.118933-88.064zM635.562667 585.045333c-0.887467 24.576-2.321067 48.264533-4.369067 70.997334 36.113067 16.247467 69.632 29.013333 99.1232 38.0928 57.412267 17.544533 96.733867 21.845333 104.106667 8.738133 7.3728-13.038933-15.837867-45.943467-59.255467-88.064-22.528-21.845333-50.176-45.192533-81.92-69.154133-18.090667 12.970667-37.410133 26.350933-57.685333 39.458133z m-52.155734 32.494934l-1.024 0.546133-0.136533 0.2048-13.380267 7.509333c9.0112 4.778667 17.885867 9.284267 26.8288 13.585067 0.682667-9.966933 1.4336-20.0704 2.048-30.5152-4.778667 2.8672-9.557333 5.666133-14.336 8.669867zM565.930667 460.731733l-1.160534-0.6144a1228.117333 1228.117333 0 0 0-34.952533-20.206933c-11.127467 6.212267-22.528 12.765867-33.928533 19.456l-0.273067 0.136533H495.616l-0.273067 0.341334h-0.136533l-0.341333 0.273066h-0.136534l-0.8192 0.6144c-11.4688 6.826667-22.664533 13.653333-33.450666 20.48a1289.8304 1289.8304 0 0 0 0 82.466134c10.786133 6.826667 21.981867 13.653333 33.450666 20.343466l0.136534 0.136534 0.8192 0.682666c11.946667 6.9632 23.483733 13.789867 35.089066 20.206934 11.195733-6.280533 22.596267-12.834133 33.928534-19.524267l0.136533-0.136533 0.273067-0.136534 0.341333-0.136533h0.136533l0.273067-0.341333 1.024-0.6144c11.332267-6.826667 22.596267-13.653333 33.450667-20.48 0.341333-13.585067 0.6144-27.374933 0.6144-41.233067 0-13.994667-0.273067-27.648-0.6144-41.233067-10.990933-6.826667-21.981867-13.653333-33.450667-20.48zM529.885867 555.690667a33.041067 33.041067 0 0 1-32.426667-33.314134c0-18.295467 14.609067-33.314133 32.426667-33.314133s32.3584 15.018667 32.3584 33.314133a32.904533 32.904533 0 0 1-32.3584 33.314134z"
          fill="#f5f6f9" p-id="8683"></path>
</svg>