<?xml version="1.0" standalone="no"?>
<!DOCTYPE svg PUBLIC "-//W3C//DTD SVG 1.1//EN"
        "http://www.w3.org/Graphics/SVG/1.1/DTD/svg11.dtd">
<svg t="1681912555589"
     class="icon"
     viewBox="0 0 1024 1024"
     version="1.1"
     xmlns="http://www.w3.org/2000/svg"
     p-id="3300"
     width="18" height="18" xmlns:xlink="http://www.w3.org/1999/xlink">
    <path d="M82.01462412 513.1513113c0 208.65821836 130.58575576 387.84239473 314.31478535 427.48610625 21.37430567 0 15.74948847-19.79935664 22.72426172-47.51845576-14.30953506-11.38462998-10.03467393-24.52420283-33.25391982-28.48407452C262.008775 843.44057634 131.51301572 691.3455193 141.23270019 513.1513113a494.53392744 494.53392744 0 0 1 30.59900508-142.51036904c24.92918964 7.01977148 40.72367637 45.53851992 44.90854101 47.47345751 14.17453945 39.50871592 20.60933027 44.8635419 44.8635419 47.51845577-9.76468271-2.65491386-3.37489013-11.33963174 0-47.51845577C309.39223515 234.1603781 424.18350419 154.06298141 441.23794961 133.18365993c-5.17483213-37.34878623-18.67439268-48.23843203-44.90854014-47.47345751C210.57544667 129.31378561 82.01462412 305.97804372 82.01462412 513.1513113z m854.97221338 0c0 207.21826583-128.56082168 383.83752568-314.31478448 427.48610625-26.23414746 0.67497803-39.73370888-10.21466778-44.90854013-47.51845576 17.00944717-20.83432325 131.84571533-100.93171992 179.63416143-284.97573809 3.37489013-36.17882403 9.76468271-44.8635419 0-47.51845576 24.20921338 2.65491386 30.68900244 8.00973984 44.86354188 47.51845576 4.18486377 1.97993584 19.97935049 40.4986834 44.90854102 47.47345752 16.96444893-44.90854013 35.09885918-94.94691416 32.75893476-142.46536992-8.77471523-178.4642001-115.6462418-339.42396885-257.25663896-348.82866387-20.65432852-25.46917207-16.19947354-19.70935928-30.46400947-31.1389875 6.88477588-27.67410088 9.04470644-47.51845576 30.46400947-47.51845576C806.40108174 125.3089157 936.9868375 304.49309206 936.9868375 513.1513113zM509.50073125 670.64619255a157.49488125 157.49488125 0 1 1 0-314.98976338 157.49488125 157.49488125 0 0 1 0 314.98976338z"
          p-id="3301" fill="#f5f6f9">
    </path>
</svg>