<?xml version="1.0" standalone="no"?><!DOCTYPE svg PUBLIC "-//W3C//DTD SVG 1.1//EN" "http://www.w3.org/Graphics/SVG/1.1/DTD/svg11.dtd"><svg t="1681913289470" class="icon" viewBox="0 0 1024 1024" version="1.1" xmlns="http://www.w3.org/2000/svg" p-id="23130" xmlns:xlink="http://www.w3.org/1999/xlink" width="18" height="18"><path d="M403.306667 721.557333h2.197333l92.522667 160.512h-174.464c-16.149333 0-35.498667-11.264-43.562667-25.066666L91.392 530.112c-8.085333-13.802667-8.085333-36.522667 0-50.304l188.586667-326.570667c8.106667-13.802667 27.434667-25.066667 43.584-25.066666h171.946666l-92.202666 159.317333c-16.149333 0-29.098667 13.12-29.098667 28.949333 0 5.205333 1.514667 10.24 4.053333 14.634667l-83.797333 145.024a28.928 28.928 0 1 0 0 57.877333h2.688l82.261333 142.336a28.928 28.928 0 0 0 23.893334 45.248z m213.013333-56.533333s-0.170667 0 0 0L534.186667 523.733333c2.688-3.2 4.693333-7.061333 5.717333-11.264h162.517333a9.130667 9.130667 0 0 0 1.514667 4.032l-14.634667 25.386667L618.666667 665.216c-0.682667 0-1.514667 0.170667-2.197334 0.170667l-0.149333-0.32z m316.288-185.066667c8.085333 13.802667 8.085333 36.522667 0 50.304l-188.586667 326.570667c-8.106667 13.802667-27.434667 25.066667-43.584 25.066667h-169.258666l-97.237334-168.917334h165.205334c5.226667 6.058667 13.12 9.6 21.717333 9.6a28.928 28.928 0 0 0 26.410667-40.725333l85.12-147.882667a28.906667 28.906667 0 0 0 26.922666-28.928c0-15.146667-11.264-27.434667-26.069333-28.949333l-85.482667-148.394667a28.928 28.928 0 0 0-26.922666-39.530666c-13.12 0-24.384 8.746667-27.925334 20.864h-161.664a24.256 24.256 0 0 0-3.029333-7.061334L528.832 128h171.605333c16.149333 0 35.498667 11.264 43.562667 25.066667l188.608 326.890666z m-530.133333 184.064l-83.285334-143.850666 1.514667-3.029334c0.341333-0.853333 0.682667-1.834667 1.002667-2.688 0.170667 0 0.170667-0.170667 0.170666-0.341333a14.016 14.016 0 0 0 0.682667-2.517333v-0.341334c0.341333-1.002667 0.341333-1.834667 0.512-2.858666v-0.341334a29.866667 29.866667 0 0 0-1.344-12.458666 43.584 43.584 0 0 0-2.368-4.864l0.170667-0.341334 83.776-145.024c3.712 0 7.082667-0.661333 10.261333-2.005333l80.256 138.965333c0 0.170667-0.170667 0.170667-0.170667 0.170667l0.170667 0.170667c-6.549333 5.376-10.752 13.44-10.752 22.528 0 6.912 2.517333 13.461333 6.72 18.517333l-0.170667 0.341333-81.088 140.48c-1.685333-0.170667-3.541333-0.512-5.546666-0.512h-0.512z m24.554666 12.8a30.784 30.784 0 0 0-5.205333-6.058666l-0.341333-0.341334 79.914666-138.304h0.170667c1.514667 0.682667 3.2 1.173333 4.885333 1.514667 1.685333 0.341333 3.52 0.512 5.376 0.512 1.002667 0 2.026667 0 3.029334-0.170667 2.688-0.341333 5.226667-1.002667 7.573333-1.856 0.853333-0.341333 1.493333-0.661333 2.346667-1.002666l80.768 138.133333c-5.546667 3.52-9.92 8.576-12.117334 14.805333h-163.029333a23.616 23.616 0 0 0-3.370667-7.253333zM689.834667 458.24l17.322666 30.293333a27.392 27.392 0 0 0-4.544 9.749334l-162.517333-0.341334h-0.170667a29.269333 29.269333 0 0 0-10.090666-15.637333c0-0.170667-0.170667-0.170667-0.170667-0.170667-0.341333-0.341333-0.661333-0.512-1.002667-0.853333a28.266667 28.266667 0 0 0-21.546666-4.544l-81.770667-141.482667c0.170667-0.170667 0.170667-0.341333 0.341333-0.512 0.512-0.661333 1.173333-1.344 1.706667-2.176 1.664-2.688 3.008-5.546667 3.690667-8.576h0.170666c0-0.170667 0.149333-0.341333 0.149334-0.512h161.194666a29.376 29.376 0 0 0 28.416 22.72c1.365333 0 2.858667 0 4.053334-0.170666l64.768 112.213333z" fill="#f5f6f9" p-id="23131"></path></svg>